<?xml version="1.0" encoding="UTF-8" standalone="no"?>
<svg width="279px" height="279px" viewBox="0 0 279 279" version="1.1" xmlns="http://www.w3.org/2000/svg" xmlns:xlink="http://www.w3.org/1999/xlink" xmlns:sketch="http://www.bohemiancoding.com/sketch/ns">
    <!-- Generator: Sketch 3.1.1 (8761) - http://www.bohemiancoding.com/sketch -->
    <title>fb-</title>
    <desc>Created with Sketch.</desc>
    <defs></defs>
    <g id="Page-1" stroke="none" stroke-width="1" fill="none" fill-rule="evenodd" sketch:type="MSPage">
        <g id="fb-" sketch:type="MSLayerGroup" transform="translate(1.000000, 1.000000)">
            <g id="Group" sketch:type="MSShapeGroup">
                <path d="M138.732,277.63 C215.439,277.63 277.628,215.446 277.628,138.732 C277.628,62.026 215.439,-0.165 138.732,-0.165 C62.018,-0.166 -0.166,62.026 -0.166,138.732 C-0.166,215.446 62.018,277.63 138.732,277.63" id="Shape" fill="#517CBE"></path>
                <path d="M104.534,114.732 L119.183,114.732 L119.183,100.493 C119.183,94.212 119.345,84.53 123.902,78.532 C128.713,72.179 135.312,67.861 146.657,67.861 C165.138,67.861 172.928,70.497 172.928,70.497 L169.267,92.207 C169.267,92.207 163.154,90.44 157.458,90.44 C151.751,90.44 146.657,92.482 146.657,98.18 L146.657,114.731 L170.021,114.731 L168.387,135.936 L146.657,135.936 L146.657,209.6 L119.182,209.6 L119.182,135.936 L104.533,135.936 L104.533,114.732 L104.534,114.732 Z" id="Shape" fill="#FFFFFF"></path>
            </g>
        </g>
    </g>
</svg>