<?xml version="1.0" encoding="UTF-8" standalone="no"?>
<svg width="279px" height="279px" viewBox="0 0 279 279" version="1.1" xmlns="http://www.w3.org/2000/svg" xmlns:xlink="http://www.w3.org/1999/xlink" xmlns:sketch="http://www.bohemiancoding.com/sketch/ns">
    <!-- Generator: Sketch 3.1.1 (8761) - http://www.bohemiancoding.com/sketch -->
    <title>in</title>
    <desc>Created with Sketch.</desc>
    <defs></defs>
    <g id="Page-1" stroke="none" stroke-width="1" fill="none" fill-rule="evenodd" sketch:type="MSPage">
        <g id="in" sketch:type="MSLayerGroup" transform="translate(1.000000, 1.000000)">
            <g id="Group" sketch:type="MSShapeGroup">
                <path d="M138.73,277.63 C215.455,277.63 277.629,215.439 277.629,138.729 C277.629,62.022 215.454,-0.165 138.73,-0.165 C62.017,-0.165 -0.166,62.022 -0.166,138.729 C-0.166,215.438 62.017,277.63 138.73,277.63" id="Shape" fill="#1187C9"></path>
                <path d="M99.859,196.824 L72.784,196.824 L72.784,110.18 L99.86,110.18 L99.86,196.824 L99.859,196.824 Z M85.627,99.343 L85.432,99.343 C75.635,99.343 69.283,92.719 69.283,84.329 C69.283,75.771 75.827,69.284 85.819,69.284 C95.804,69.284 101.949,75.756 102.145,84.305 C102.145,92.699 95.804,99.343 85.627,99.343 L85.627,99.343 Z M208.182,196.824 L177.478,196.824 L177.478,151.987 C177.478,140.252 172.677,132.244 162.118,132.244 C154.04,132.244 149.55,137.647 147.46,142.859 C146.679,144.729 146.798,147.33 146.798,149.945 L146.798,196.824 L116.385,196.824 C116.385,196.824 116.78,117.402 116.385,110.18 L146.798,110.18 L146.798,123.778 C148.593,117.832 158.307,109.347 173.826,109.347 C193.062,109.347 208.182,121.812 208.182,148.645 L208.182,196.824 L208.182,196.824 Z" id="Shape" fill="#FFFFFF"></path>
            </g>
        </g>
    </g>
</svg>