<?xml version="1.0" encoding="UTF-8" standalone="no"?>
<svg width="279px" height="279px" viewBox="0 0 279 279" version="1.1" xmlns="http://www.w3.org/2000/svg" xmlns:xlink="http://www.w3.org/1999/xlink" xmlns:sketch="http://www.bohemiancoding.com/sketch/ns">
    <!-- Generator: Sketch 3.1.1 (8761) - http://www.bohemiancoding.com/sketch -->
    <title>tw</title>
    <desc>Created with Sketch.</desc>
    <defs></defs>
    <g id="Page-1" stroke="none" stroke-width="1" fill="none" fill-rule="evenodd" sketch:type="MSPage">
        <g id="tw" sketch:type="MSLayerGroup" transform="translate(1.000000, 1.000000)">
            <g id="Group" sketch:type="MSShapeGroup">
                <path d="M138.737,277.63 C215.446,277.63 277.628,215.447 277.628,138.733 C277.628,62.027 215.446,-0.164 138.737,-0.164 C62.024,-0.164 -0.163,62.027 -0.163,138.733 C-0.163,215.447 62.023,277.63 138.737,277.63" id="Shape" fill="#65CCEF"></path>
                <path d="M208.42,102.345 C203.3,104.614 197.797,106.149 192.023,106.839 C197.925,103.306 202.455,97.715 204.577,91.052 C199.057,94.322 192.957,96.695 186.441,97.97 C181.249,92.423 173.824,88.958 165.61,88.958 C149.85,88.958 137.074,101.743 137.074,117.501 C137.074,119.742 137.318,121.916 137.808,124.001 C114.086,122.809 93.059,111.456 78.971,94.174 C76.515,98.404 75.107,103.305 75.107,108.537 C75.107,118.431 80.148,127.171 87.808,132.295 C83.131,132.151 78.725,130.856 74.872,128.73 L74.872,129.081 C74.872,142.918 84.709,154.458 97.777,157.074 C95.381,157.744 92.86,158.079 90.252,158.079 C88.414,158.079 86.62,157.904 84.885,157.569 C88.514,168.91 99.053,177.164 111.546,177.38 C101.776,185.044 89.466,189.606 76.096,189.606 C73.791,189.606 71.514,189.479 69.285,189.215 C81.917,197.302 96.923,202.031 113.04,202.031 C165.552,202.031 194.255,158.542 194.255,120.815 C194.255,119.575 194.232,118.339 194.175,117.123 C199.759,113.096 204.607,108.067 208.42,102.345" id="Shape" fill="#FFFFFF"></path>
            </g>
        </g>
    </g>
</svg>